<svg xmlns="http://www.w3.org/2000/svg" xmlns:xlink="http://www.w3.org/1999/xlink" width="2400" height="760" viewBox="0 0 2400 760">
<rect width="100%" height="100%" fill="white"/>
<defs>
<style><![CDATA[text{font-family:Arial, Helvetica, sans-serif;} .title{fill:white;font-size:38px;font-weight:700;} .score{fill:red;font-size:31px;font-weight:700;} .small{font-size:20px;font-weight:700;} .note{fill:white;font-size:18px;opacity:.72;}]]></style>
</defs>
<g id="panel-supported">
<image id="cloud-supported" href="file:///home/qu_menghao/catkin_ws/src/slamspoof/figures/real_bismvs_supported_cloud_bg.png" xlink:href="file:///home/qu_menghao/catkin_ws/src/slamspoof/figures/real_bismvs_supported_cloud_bg.png" x="40" y="140" width="1030" height="565" preserveAspectRatio="none"/>
<rect x="40" y="55" width="1030" height="650" fill="none" stroke="black" stroke-width="5"/>
<rect x="40" y="55" width="1030" height="85" fill="#082b63" stroke="black" stroke-width="3"/>
<text class="title" x="62" y="110">Visual-supported case  (visual support)</text>
<path id="trajectory-supported" d="M 1348.5,189.3 L 1344.8,191.1 L 1340.6,193.3 L 1336.6,195.1 L 1332.8,197.0 L 1328.3,199.2 L 1324.4,200.1 L 1320.6,202.1 L 1316.0,204.1 L 1311.7,205.9 L 1306.6,207.8 L 1302.2,209.5 L 1297.8,211.1 L 1293.9,213.1 L 1289.6,215.2 L 1285.7,217.3 L 1281.7,219.0 L 1277.4,221.2 L 1273.7,223.0 L 1269.6,225.3 L 1265.2,227.4 L 1261.1,229.4 L 1256.9,231.1 L 1253.0,233.1 L 1249.3,234.7 L 1245.0,237.3 L 1241.2,239.3 L 1237.0,241.2 L 1232.8,243.1 L 1229.0,245.4 L 1224.9,247.8 L 1220.0,250.0 L 1215.1,251.7 L 1210.6,254.1 L 1206.5,255.1 L 1202.3,256.8 L 1197.8,258.6 L 1192.8,260.0 L 1188.1,261.0 L 1183.8,262.3 L 1179.8,264.6 L 1175.9,266.7 L 1171.6,268.7 L 1167.0,270.5 L 1162.8,273.1 L 1158.7,274.9 L 1154.7,276.8 L 1150.4,278.7 L 1145.6,280.7 L 1141.3,282.0 L 1136.3,284.3 L 1131.7,286.9 L 1127.3,289.3 L 1123.3,290.8 L 1119.1,292.4 L 1113.8,294.8 L 1110.0,296.5 L 1105.9,298.3 L 1101.3,300.5 L 1097.1,302.0 L 1092.7,303.9 L 1088.6,305.7 L 1084.4,307.7 L 1080.0,309.3 L 1075.6,311.0 L 1071.0,313.2 L 1066.2,314.0 L 1062.3,315.4 L 1057.9,317.3 L 1053.1,319.1 L 1048.4,320.0 L 1043.8,321.7 L 1039.6,323.0 L 1035.5,324.4 L 1030.9,326.2 L 1026.1,328.3 L 1021.8,329.6 L 1017.6,330.4 L 1013.4,331.7 L 1009.4,333.0 L 1005.1,334.6 L 1000.8,336.2 L 996.5,338.1 L 992.4,340.1 L 989.0,342.4 L 984.8,344.5 L 981.0,346.1 L 976.9,348.0 L 972.4,349.9 L 968.4,351.8 L 964.4,354.0 L 960.0,356.0 L 955.6,358.2 L 951.1,359.4 L 946.6,361.2 L 942.3,363.2 L 938.1,364.9 L 933.1,366.6 L 928.1,368.2 L 923.3,370.1 L 918.6,371.3 L 914.8,372.6 L 909.8,374.4 L 904.6,376.1 L 899.9,377.3 L 895.1,378.5 L 890.4,380.0 L 885.6,381.6 L 880.2,382.8 L 875.4,383.7 L 870.0,384.6 L 865.4,385.5 L 861.1,387.2 L 856.1,388.3 L 851.5,389.5 L 846.4,390.8 L 841.8,392.4 L 837.6,393.3 L 832.8,394.6 L 827.8,396.2 L 823.0,397.2 L 818.3,397.8 L 813.4,399.2 L 808.7,400.5 L 803.6,401.9 L 799.3,402.7 L 794.6,403.9 L 789.9,405.3 L 785.6,406.1 L 780.5,407.2 L 775.5,408.6 L 770.5,409.7 L 765.6,410.8 L 760.6,412.3 L 755.5,413.8 L 750.6,414.8 L 745.7,415.8 L 740.8,416.9 L 735.6,418.5 L 730.9,419.7 L 726.1,421.0 L 720.4,422.4 L 715.2,423.1 L 710.1,424.2 L 705.0,424.9 L 700.6,425.7 L 695.3,426.6 L 689.4,426.8 L 684.5,426.9 L 679.5,427.3 L 673.9,427.9 L 668.2,428.6 L 662.1,429.1 L 656.8,429.3 L 651.5,429.9 L 646.6,429.9 L 642.1,430.1 L 636.8,429.9 L 632.0,429.8 L 626.6,430.1 L 621.9,429.9 L 617.0,429.7 L 611.7,429.0 L 606.5,428.5 L 601.3,428.0 L 594.7,426.6 L 590.8,426.7 L 585.2,426.5 L 579.7,426.2 L 575.0,425.4 L 570.0,424.0 L 565.3,423.7 L 560.3,423.2 L 555.0,422.5 L 549.8,421.5 L 544.7,420.6 L 540.3,419.3 L 535.7,418.4 L 530.6,417.1 L 525.2,416.2 L 520.0,415.1 L 515.1,414.1 L 510.7,413.2 L 506.5,412.3 L 501.4,411.5 L 496.1,410.5 L 491.5,409.6 L 486.7,408.7 L 482.1,408.5 L 476.3,408.6 L 471.6,407.2 L 466.4,406.3 L 462.3,405.1 L 457.8,404.0 L 452.9,403.1 L 448.2,402.3 L 443.1,401.3 L 438.6,400.2 L 433.1,399.2 L 427.7,399.3 L 423.0,399.0 L 418.1,397.7 L 412.8,396.4 L 408.7,395.0 L 404.4,393.4 L 400.1,392.2 L 395.4,391.0 L 390.2,389.2 L 386.1,387.1 L 382.7,384.8 L 378.8,383.1 L 374.9,381.6 L 370.7,379.2 L 366.3,377.2 L 362.5,374.8 L 358.5,373.1 L 355.3,371.1 L 351.3,369.1 L 348.3,367.2 L 343.7,364.9 L 340.6,362.5 L 337.5,359.8 L 333.8,357.3 L 330.1,354.6 L 327.1,351.9 L 324.3,349.3 L 321.9,346.7 L 319.5,344.3 L 316.9,341.7 L 313.6,339.1 L 311.1,336.2 L 307.9,333.8 L 304.8,330.9 L 302.6,328.2 L 299.4,326.0 L 296.4,323.3 L 293.3,320.7 L 290.5,318.3 L 287.6,316.0 L 285.2,313.5 L 282.2,310.9 L 279.7,307.7 L 277.3,305.5 L 275.1,302.4 L 272.0,299.9 L 269.2,297.4 L 265.7,294.4 L 263.1,291.9 L 260.4,288.8 L 257.5,286.3 L 254.8,283.3 L 251.3,280.7 L 249.3,277.6 L 247.3,274.8 L 245.0,272.2 L 242.6,269.6 L 239.5,267.2 L 235.9,264.5 L 233.0,262.3 L 230.2,259.7 L 227.3,256.8 L 224.0,253.9 L 221.6,251.0 L 219.1,248.3 L 216.4,245.0 L 214.4,242.1 L 211.7,239.4 L 209.1,236.9 L 206.0,234.4 L 202.5,231.7 L 199.4,229.0 L 195.2,226.6 L 191.3,224.3 L 188.5,222.0 L 185.1,219.3 L 182.1,216.4 L 179.2,213.4 L 176.7,210.9 L 174.1,208.4 L 170.2,205.4 L 168.1,202.4 L 165.6,199.3 L 163.7,196.2 L 161.3,193.0 L 158.3,190.2 L 156.4,187.3 L 153.4,183.9 L 151.0,180.8 L 148.7,177.9 L 145.4,175.2 L 142.0,172.3 L 139.1,169.2 L 136.2,166.3 L 133.6,163.4 L 130.5,160.6 L 127.1,157.5 L 124.5,154.2 L 121.7,151.6 L 119.1,148.5 L 116.4,145.6 L 113.9,142.0 L 111.3,139.0 L 109.1,136.1 L 107.0,132.8 L 105.3,129.6 L 102.2,126.8 L 99.2,124.0 L 96.7,120.9 L 93.0,118.1 L 90.3,115.6 L 86.7,113.2 L 83.6,110.3 L 80.4,107.6 L 77.8,104.7 L 75.0,101.5 L 72.0,98.2 L 69.4,95.5 L 66.3,92.7 L 63.2,89.9 L 60.4,86.6 L 58.2,83.7 L 55.3,80.8 L 51.6,77.8 L 49.0,75.1 L 46.2,71.8 L 43.1,68.8 L 40.6,66.8 L 37.1,63.2 L 34.1,59.9 L 30.8,57.3 L 28.4,54.3 L 25.3,51.3 L 22.6,48.2 L 19.7,45.1 L 17.4,41.5 L 15.5,38.1 L 13.4,34.2 L 11.8,31.4 L 9.0,28.3 L 7.1,25.0 L 4.7,21.8 L 2.6,18.5 L 0.6,15.6 L -1.8,12.7 L -4.9,9.6 L -6.9,6.8 L -9.7,3.8" fill="none" stroke="#ff3030" stroke-width="5" stroke-linecap="round" stroke-linejoin="round" opacity="0.96"/>
<circle id="current-pose-supported" cx="555.0" cy="422.5" r="8" fill="#ff3030" stroke="white" stroke-width="3"/>
<rect id="score-box-supported" x="78" y="168" width="520" height="155" fill="white" opacity="0.86"/>
<text class="score" x="100" y="210">Bi-SMVS = 881</text>
<text class="score" x="100" y="250">LiDAR = 1645   Visual = 17.2</text>
<text class="score" x="100" y="290">Bi/LiDAR = 0.54</text>
<rect x="654" y="431" width="382" height="242" fill="white"/>
<image id="camera-supported" href="file:///home/qu_menghao/catkin_ws/src/slamspoof/figures/real_bismvs_supported_camera_clean.jpg" xlink:href="file:///home/qu_menghao/catkin_ws/src/slamspoof/figures/real_bismvs_supported_camera_clean.jpg" x="660" y="437" width="370" height="230" preserveAspectRatio="xMidYMid slice"/>
<rect x="660" y="437" width="370" height="38" fill="white" opacity="0.86"/>
<text x="676" y="464" fill="#082b63" font-size="23" font-weight="700">synchronized camera</text>
<rect x="660" y="437" width="370" height="230" fill="none" stroke="white" stroke-width="6"/>
<text class="note" x="78" y="675">3604k real points</text>
</g>
<g id="panel-vulnerable">
<image id="cloud-vulnerable" href="file:///home/qu_menghao/catkin_ws/src/slamspoof/figures/real_bismvs_vulnerable_cloud_bg.png" xlink:href="file:///home/qu_menghao/catkin_ws/src/slamspoof/figures/real_bismvs_vulnerable_cloud_bg.png" x="1330" y="140" width="1030" height="565" preserveAspectRatio="none"/>
<rect x="1330" y="55" width="1030" height="650" fill="none" stroke="black" stroke-width="5"/>
<rect x="1330" y="55" width="1030" height="85" fill="#082b63" stroke="black" stroke-width="3"/>
<text class="title" x="1352" y="110">High Bi-SMVS case  (weak visual support)</text>
<path id="trajectory-vulnerable" d="M 2177.2,-124.2 L 2174.4,-121.4 L 2171.7,-118.8 L 2168.7,-116.0 L 2165.5,-113.6 L 2162.1,-110.6 L 2158.7,-108.2 L 2155.1,-105.0 L 2151.9,-102.5 L 2148.7,-99.5 L 2145.1,-96.8 L 2141.3,-94.2 L 2137.7,-91.7 L 2133.8,-88.8 L 2130.5,-86.1 L 2126.6,-83.3 L 2123.1,-80.7 L 2119.9,-77.9 L 2116.5,-75.0 L 2113.3,-72.2 L 2110.2,-69.1 L 2106.8,-66.5 L 2104.0,-63.7 L 2099.7,-60.8 L 2098.8,-57.4 L 2096.1,-54.4 L 2093.8,-51.4 L 2091.6,-48.1 L 2089.7,-44.7 L 2087.6,-40.9 L 2085.5,-37.6 L 2083.8,-34.1 L 2081.9,-30.7 L 2079.6,-27.3 L 2078.0,-24.4 L 2075.9,-20.9 L 2074.0,-17.7 L 2071.9,-14.8 L 2069.5,-11.8 L 2067.1,-8.8 L 2063.9,-5.2 L 2062.8,-2.1 L 2060.3,1.4 L 2058.2,4.3 L 2055.2,7.7 L 2053.0,10.9 L 2050.4,14.2 L 2048.2,17.3 L 2046.2,20.4 L 2043.9,23.1 L 2040.7,25.9 L 2037.6,28.9 L 2034.8,31.7 L 2031.2,34.6 L 2028.3,37.4 L 2024.8,40.0 L 2022.2,43.0 L 2018.2,45.8 L 2015.1,48.5 L 2012.1,51.3 L 2009.0,53.9 L 2005.7,57.3 L 2002.7,60.7 L 1999.4,64.5 L 1996.9,67.4 L 1993.7,69.9 L 1990.4,73.0 L 1986.1,76.5 L 1983.3,79.2 L 1980.9,82.2 L 1977.5,84.9 L 1973.8,87.5 L 1969.6,90.7 L 1967.3,93.4 L 1963.7,96.4 L 1960.0,99.2 L 1956.9,102.0 L 1953.1,105.0 L 1949.9,107.9 L 1947.0,110.9 L 1944.2,113.6 L 1941.3,116.5 L 1938.7,119.5 L 1934.3,122.4 L 1931.5,125.3 L 1929.2,128.6 L 1925.7,131.3 L 1922.5,134.2 L 1919.7,137.5 L 1916.3,141.2 L 1914.7,144.4 L 1911.4,147.3 L 1908.6,150.3 L 1905.2,153.2 L 1901.7,156.1 L 1898.8,158.9 L 1895.4,161.8 L 1892.7,164.8 L 1889.8,167.8 L 1887.3,170.8 L 1885.0,174.5 L 1882.7,177.7 L 1880.3,180.8 L 1877.5,183.9 L 1874.3,187.2 L 1870.8,190.5 L 1868.9,193.8 L 1866.6,197.3 L 1863.8,200.8 L 1861.3,204.1 L 1859.8,207.8 L 1857.0,210.7 L 1854.6,214.0 L 1852.3,217.1 L 1849.4,220.1 L 1847.0,223.5 L 1844.4,226.8 L 1842.0,230.2 L 1839.5,233.9 L 1837.3,237.2 L 1835.1,241.3 L 1833.5,244.8 L 1831.1,248.9 L 1830.1,252.6 L 1828.3,256.1 L 1826.2,259.9 L 1825.1,263.7 L 1823.0,267.1 L 1821.6,270.7 L 1820.5,273.9 L 1818.8,277.1 L 1816.7,280.6 L 1815.2,283.5 L 1813.6,286.7 L 1812.5,290.1 L 1810.4,293.3 L 1809.5,296.4 L 1807.8,300.0 L 1806.9,303.0 L 1805.7,306.4 L 1805.1,309.7 L 1804.2,312.9 L 1803.6,316.3 L 1801.8,320.2 L 1801.4,323.6 L 1800.9,327.2 L 1800.1,330.4 L 1799.5,333.8 L 1799.0,337.3 L 1799.2,341.1 L 1799.5,344.6 L 1800.3,347.7 L 1801.4,351.0 L 1801.8,355.2 L 1803.4,358.5 L 1805.3,362.0 L 1807.5,365.5 L 1809.5,369.2 L 1811.4,371.9 L 1813.3,375.0 L 1816.6,378.3 L 1819.5,381.6 L 1822.3,384.6 L 1824.1,387.6 L 1825.7,390.9 L 1827.8,394.0 L 1829.7,397.0 L 1832.0,400.0 L 1833.8,403.1 L 1834.9,405.9 L 1836.7,409.2 L 1838.7,412.8 L 1840.8,415.9 L 1843.2,419.3 L 1845.0,422.5 L 1846.9,425.5 L 1849.1,428.7 L 1851.1,432.2 L 1853.5,435.3 L 1855.9,438.2 L 1857.8,441.3 L 1860.1,444.8 L 1862.2,447.7 L 1864.5,450.7 L 1866.7,453.6 L 1868.8,456.6 L 1870.5,459.7 L 1872.8,463.4 L 1874.7,466.6 L 1877.2,469.6 L 1879.3,473.1 L 1881.7,476.1 L 1883.9,479.3 L 1886.4,482.4 L 1889.8,485.2 L 1893.3,487.9 L 1896.4,490.6 L 1899.4,493.4 L 1901.8,496.7 L 1904.5,499.9 L 1907.5,502.6 L 1910.1,505.7 L 1912.7,508.2 L 1915.6,511.3 L 1918.8,514.3 L 1921.4,516.8 L 1925.3,519.5 L 1928.9,522.4 L 1931.5,524.9 L 1934.7,528.0 L 1938.1,530.6 L 1941.2,533.4 L 1944.2,536.0 L 1946.7,539.0 L 1949.0,542.2 L 1951.3,545.1 L 1954.2,548.1 L 1956.5,551.2 L 1958.7,554.2 L 1960.2,557.3 L 1962.4,560.2 L 1965.4,563.4 L 1968.4,566.2 L 1971.6,569.5 L 1974.3,572.6 L 1976.1,575.1 L 1978.8,578.3 L 1981.3,581.4 L 1984.4,584.2 L 1987.0,587.0 L 1989.5,589.8 L 1992.1,592.9 L 1995.2,596.0 L 1998.3,598.7 L 2001.4,601.7 L 2004.3,604.4 L 2006.6,607.4 L 2009.4,610.6 L 2012.6,613.2 L 2015.8,616.2 L 2018.8,618.9 L 2021.9,621.4 L 2024.5,624.4 L 2027.4,627.4 L 2030.3,630.7 L 2033.6,633.4 L 2035.9,636.6 L 2038.8,639.3 L 2041.6,642.6 L 2045.3,645.7 L 2048.0,648.8 L 2051.5,651.6 L 2054.4,654.4 L 2057.6,657.5 L 2060.8,660.3 L 2064.4,663.1 L 2067.6,665.6 L 2070.3,668.3 L 2073.5,671.3 L 2077.0,674.3 L 2081.1,677.4 L 2084.1,680.8 L 2086.9,683.4 L 2089.0,686.5 L 2091.7,689.7 L 2094.2,692.7 L 2097.0,695.6 L 2099.4,698.3 L 2102.0,701.4 L 2104.6,704.6 L 2108.2,707.9 L 2110.9,711.3 L 2114.0,714.3 L 2116.6,717.4 L 2118.6,720.8 L 2122.0,723.8 L 2124.7,727.3 L 2127.1,730.7 L 2129.7,733.7 L 2131.6,736.8 L 2134.2,740.2 L 2136.9,743.8 L 2139.9,746.9 L 2142.8,749.8 L 2145.6,752.9 L 2148.2,756.0 L 2151.5,759.1 L 2154.7,761.8 L 2158.1,764.7 L 2161.1,767.4 L 2163.9,770.5 L 2167.2,773.8 L 2170.3,776.9 L 2173.9,779.9 L 2176.6,782.8 L 2179.6,785.9 L 2181.8,789.3 L 2185.0,792.0 L 2188.2,795.0 L 2191.7,797.7 L 2193.9,800.7 L 2196.4,803.6 L 2199.5,806.6 L 2202.4,809.7 L 2205.9,812.0 L 2209.4,814.8 L 2212.5,817.6 L 2215.6,820.5 L 2218.9,823.4 L 2222.5,826.2 L 2225.9,829.0 L 2228.5,832.0 L 2231.4,834.7 L 2233.8,837.6 L 2237.6,840.6 L 2241.3,843.5 L 2243.9,846.4 L 2247.1,849.8 L 2250.8,852.7 L 2254.4,855.7 L 2257.6,858.9 L 2261.1,861.7 L 2264.4,864.1 L 2267.5,867.1 L 2271.1,870.0 L 2274.3,872.7 L 2278.0,875.5 L 2280.9,878.7 L 2284.0,881.2 L 2287.4,884.3 L 2290.7,887.0 L 2294.1,889.8 L 2297.9,892.8 L 2300.7,895.7 L 2303.4,898.5 L 2306.9,901.6 L 2310.1,904.7 L 2313.8,907.7 L 2316.7,910.8 L 2319.3,913.7 L 2322.2,917.0 L 2325.3,920.5 L 2328.3,923.5 L 2330.3,926.6 L 2332.2,930.0 L 2334.0,933.4 L 2336.3,936.6 L 2338.9,939.8" fill="none" stroke="#ff3030" stroke-width="5" stroke-linecap="round" stroke-linejoin="round" opacity="0.96"/>
<circle id="current-pose-vulnerable" cx="1845.0" cy="422.5" r="8" fill="#ff3030" stroke="white" stroke-width="3"/>
<rect id="score-box-vulnerable" x="1368" y="168" width="520" height="155" fill="white" opacity="0.86"/>
<text class="score" x="1390" y="210">Bi-SMVS = 2498</text>
<text class="score" x="1390" y="250">LiDAR = 2498   Visual = 12.3</text>
<text class="score" x="1390" y="290">Bi/LiDAR = 1.00</text>
<rect x="1944" y="431" width="382" height="242" fill="white"/>
<image id="camera-vulnerable" href="file:///home/qu_menghao/catkin_ws/src/slamspoof/figures/real_bismvs_vulnerable_camera_clean.jpg" xlink:href="file:///home/qu_menghao/catkin_ws/src/slamspoof/figures/real_bismvs_vulnerable_camera_clean.jpg" x="1950" y="437" width="370" height="230" preserveAspectRatio="xMidYMid slice"/>
<rect x="1950" y="437" width="370" height="38" fill="white" opacity="0.86"/>
<text x="1966" y="464" fill="#082b63" font-size="23" font-weight="700">synchronized camera</text>
<rect x="1950" y="437" width="370" height="230" fill="none" stroke="white" stroke-width="6"/>
<text class="note" x="1368" y="675">3122k real points</text>
</g>
</svg>